<?xml version="1.0" encoding="utf-8"?>
<!-- Generator: Adobe Illustrator 26.5.0, SVG Export Plug-In . SVG Version: 6.00 Build 0)  -->
<svg version="1.1" id="_레이어_2" xmlns="http://www.w3.org/2000/svg" xmlns:xlink="http://www.w3.org/1999/xlink" x="0px"
	 y="0px" viewBox="0 0 76.9 20.9" style="enable-background:new 0 0 76.9 20.9;" xml:space="preserve">
<style type="text/css">
	.st0{fill:#FFFFFF;}
	.st1{fill:#A3BDFB;}
</style>
<g id="_레이어_1-2">
	<path class="st0" d="M4.2,12.4c0.4,1.3,1.2,2.4,2.3,3.3c1.2,0.9,2.5,1.3,4,1.3c1.2,0,2.3-0.3,3.5-0.8c1.2-0.6,2.1-1.2,2.7-2.1
		l3.2,2.2c-0.9,1.4-2.3,2.5-4,3.3c-1.8,0.9-3.5,1.3-5.3,1.3c-2.9,0-5.4-1-7.4-3.1C1,15.8,0,13.4,0,10.5s1-5.4,3.1-7.4S7.6,0,10.5,0
		s5.3,1,7.4,3.1S21,7.6,21,10.5c0,0.6-0.1,1.3-0.2,1.9H4.2z M10.5,3.9c-1.5,0-2.8,0.4-4,1.3c-1.1,0.9-1.9,2-2.3,3.3h12.5
		c-0.4-1.4-1.2-2.5-2.3-3.3C13.2,4.3,11.9,3.9,10.5,3.9L10.5,3.9z"/>
	<path class="st0" d="M27.1,17.9c-2-2.1-3.1-4.5-3.1-7.4s1-5.4,3.1-7.4S31.6,0,34.5,0s5.4,1,7.4,3.1S45,7.6,45,10.5s-1,5.3-3.1,7.4
		S37.4,21,34.5,21S29.2,19.9,27.1,17.9z M29.9,5.8C28.6,7.1,28,8.6,28,10.5s0.6,3.3,1.9,4.6s2.8,1.9,4.6,1.9s3.3-0.6,4.6-1.9
		s2-2.8,2-4.6s-0.7-3.4-2-4.7s-2.8-1.9-4.6-1.9S31.1,4.5,29.9,5.8z"/>
	<path class="st0" d="M48,20.9V10.5c0-2.9,1-5.4,3.1-7.4S55.5,0,58.4,0s5.4,1,7.4,3.1c2.1,2,3.1,4.5,3.1,7.4V21H65V10.5
		c0-1.8-0.7-3.4-2-4.7c-1.3-1.3-2.8-1.9-4.6-1.9s-3.3,0.6-4.6,1.9c-1.3,1.3-1.9,2.9-1.9,4.7V21C51.9,20.9,48,20.9,48,20.9z"/>
	<circle class="st1" cx="74.4" cy="18.4" r="2.5"/>
</g>
</svg>
