<svg width="200" height="200" viewBox="0 0 200 200" fill="none" xmlns="http://www.w3.org/2000/svg">
<g clip-path="url(#clip0)">
<path d="M99.9956 200C155.223 200 200 155.232 200 100.022C200 44.7855 155.223 1.52588e-05 99.9956 1.52588e-05C44.759 1.52588e-05 0 44.7855 0 100.022C0 155.232 44.759 200 99.9956 200Z" fill="#E20612"/>
<path d="M67.6897 55.3426C48.8248 54.6106 43.7183 81.4131 42.5541 85.9904C42.4924 86.3167 42.3336 86.4314 42.3336 86.4314C36.5127 85.6376 33.2936 84.447 33.2936 84.447L31.9707 88.1953C35.8954 90.0562 41.6721 90.6206 41.6721 90.6206C40.5432 97.8262 34.837 111.346 34.837 111.346C34.837 111.346 29.7746 109.803 23.3717 109.803C15.046 109.803 12.118 113.719 11.9063 116.197C11.3595 122.618 19.4999 125.678 25.1356 125.678C36.1335 125.678 41.8926 119.725 41.8926 119.725C41.8926 119.725 72.6815 131.411 104.952 131.411C147.189 131.411 182.784 120.166 182.784 120.166L181.682 116.197C181.682 116.197 155.885 125.184 106.496 124.576C72.4258 124.161 46.3024 114.213 46.3024 114.213C46.3024 114.213 47.2902 112.449 47.8458 111.346C51.2589 104.388 55.3424 90.4001 55.3424 90.4001C55.3424 90.4001 78.7141 83.8561 78.7141 65.2645C78.7141 59.3819 73.0961 55.5807 67.6897 55.3426ZM68.5716 60.6343C72.1965 60.6343 73.5018 63.5006 73.2019 66.1465C71.438 81.6776 56.0038 85.3289 56.0038 85.3289C56.0038 85.3289 59.7345 60.6343 68.5716 60.6343ZM106.055 73.4226C102.13 73.4226 99.4399 75.0366 99.4399 78.7143C99.4399 82.4361 102.58 83.3445 106.055 83.3445C109.538 83.3445 112.89 81.8452 112.89 78.0528C112.89 74.2516 108.894 73.4226 106.055 73.4226ZM158.31 86.8723C147.039 86.8723 140.936 96.5914 140.671 102.306C140.618 103.55 140.451 103.629 140.451 103.629C140.186 103.929 136.305 108.48 131.411 108.48C127.495 108.48 126.78 105.287 126.78 103.188C126.78 100.913 128.721 91.9436 134.057 91.9436C136.958 91.9436 138.687 94.3689 138.687 94.3689L140.23 89.2977C140.23 89.2977 137.796 87.331 132.734 87.3133C121.833 87.3045 114.477 95.3743 114.213 102.747C114.16 103.85 113.974 104.22 113.992 104.291C113.631 104.732 111.082 107.819 107.598 107.819C105.217 107.819 105.173 105.993 105.173 105.173C105.173 104.053 109.803 87.9748 109.803 87.9748L97.4555 88.1953L93.2663 103.85C93.2663 103.85 86.3871 108.692 76.9502 109.362C72.0818 109.697 70.3355 106.69 70.3355 104.952C70.3356 104.229 70.3355 104.291 70.3355 104.291C70.3444 104.291 72.3817 104.511 73.8634 104.511C75.0275 104.511 89.518 103.391 89.518 94.5894C89.518 89.5535 84.4115 87.7543 78.0526 87.7543C66.2962 87.7543 57.9882 94.9775 57.9882 103.629C57.9882 111.523 64.7263 114.874 73.4224 114.874C83.2914 114.874 93.0458 108.921 93.0458 108.921C93.0458 108.921 93.6367 114.874 101.424 114.874C109.459 114.874 115.756 108.921 115.756 108.921C115.756 108.921 119.231 114.654 127.221 114.654C135.388 114.654 141.553 108.039 141.553 108.039C141.553 108.039 143.829 114.213 151.916 114.213C158.24 114.213 161.617 110.244 161.617 110.244C161.617 110.244 163.381 114.213 168.894 114.213C175.623 114.213 180.579 109.583 180.579 109.583L179.477 105.614C179.477 105.614 176.919 107.598 175.067 107.598C173.665 107.598 172.862 106.46 172.862 105.173C172.862 102.28 177.493 87.9748 177.493 87.9748L166.248 88.1953L165.807 89.9592C165.807 89.9592 164.131 86.8723 158.31 86.8723ZM78.4936 91.2821C80.1517 91.3791 81.4129 92.4992 81.3599 93.7075C81.0865 101.539 71.438 100.322 71.438 100.322C71.438 100.322 72.8579 90.9381 78.4936 91.2821ZM160.515 91.5026C162.835 91.5026 164.043 93.3459 164.043 94.8099C164.043 95.1098 162.729 108.48 156.105 108.48C153.071 108.48 153.018 105.032 153.018 104.07C153.018 101.522 155.02 91.5026 160.515 91.5026ZM21.1668 114.654C21.7427 114.596 22.2097 114.619 22.7102 114.654C27.5345 114.918 31.7502 116.638 31.7502 116.638C31.7502 116.638 26.7848 120.483 22.7102 120.607C19.5969 120.704 17.639 118.675 17.639 117.52C17.639 115.602 19.4391 114.828 21.1668 114.654Z" fill="white"/>
</g>
<defs>
<clipPath id="clip0">
<rect width="200" height="200" fill="white"/>
</clipPath>
</defs>
</svg>
