<?xml version="1.0" encoding="UTF-8"?>
<svg id="_레이어_2" data-name="레이어 2" xmlns="http://www.w3.org/2000/svg" viewBox="0 0 810.17 792.17">
  <defs>
    <style>
      .cls-1 {
        fill: #393939;
      }

      .cls-2 {
        fill: #a3bdfb;
      }
    </style>
  </defs>
  <g id="_레이어_2-2" data-name=" 레이어 2">
    <g id="_레이어_1-2" data-name=" 레이어 1-2">
      <circle class="cls-2" cx="187.24" cy="603.13" r="187.24"/>
      <path class="cls-1" d="M75.62,223.25c7.2,23.41,21.6,43.21,41.41,59.41,21.6,16.2,45.01,23.41,72.02,23.41,21.6,0,41.41-5.4,63.01-14.4,21.6-10.8,37.81-21.6,48.61-37.81l57.61,39.61c-16.2,25.21-41.41,45.01-72.02,59.41-32.41,16.2-63.01,23.41-95.42,23.41-52.21,0-97.22-18-133.23-55.81C18,284.46,0,241.25,0,189.04S18,91.82,55.81,55.81C93.62,19.8,136.83,0,189.04,0s95.42,18,133.23,55.81c37.81,37.81,55.81,81.02,55.81,133.23,0,10.8-1.8,23.41-3.6,34.21H75.62ZM189.04,70.22c-27.01,0-50.41,7.2-72.02,23.41-19.8,16.2-34.21,36.01-41.41,59.41h225.05c-7.2-25.21-21.6-45.01-41.41-59.41-21.6-16.2-45.01-23.41-70.22-23.41h0Z"/>
      <path class="cls-1" d="M487.9,322.27c-36.01-37.81-55.81-81.02-55.81-133.23s18-97.22,55.81-133.23C525.71,19.8,568.92,0,621.13,0s97.22,18,133.23,55.81c36.01,37.81,55.81,81.02,55.81,133.23s-18,95.42-55.81,133.23c-37.81,37.81-81.02,55.81-133.23,55.81s-95.42-19.8-133.23-55.81Zm50.41-217.85c-23.41,23.41-34.21,50.41-34.21,84.62s10.8,59.41,34.21,82.82c23.41,23.41,50.41,34.21,82.82,34.21s59.41-10.8,82.82-34.21,36.01-50.41,36.01-82.82-12.6-61.21-36.01-84.62-50.41-34.21-82.82-34.21-61.21,10.8-82.82,34.21Z"/>
      <path class="cls-1" d="M433.89,790.37v-187.24c0-52.21,18-97.22,55.81-133.23,37.81-36.01,79.22-55.81,131.43-55.81s97.22,18,133.23,55.81c37.81,36.01,55.81,81.02,55.81,133.23v189.04h-70.22v-189.04c0-32.41-12.6-61.21-36.01-84.62-23.41-23.41-50.41-34.21-82.82-34.21s-59.41,10.8-82.82,34.21c-23.41,23.41-34.21,52.21-34.21,84.62v189.04c0-1.8-70.22-1.8-70.22-1.8Z"/>
    </g>
  </g>
</svg>