<?xml version="1.0" encoding="UTF-8"?>
<svg id="_레이어_2" data-name="레이어 2" xmlns="http://www.w3.org/2000/svg" xmlns:xlink="http://www.w3.org/1999/xlink" viewBox="0 0 155.91 45.5">
  <defs>
    <style>
      .cls-1 {
        fill: #392284;
      }

      .cls-2 {
        fill: url(#_무제_그라디언트_2);
      }

      .cls-3 {
        clip-path: url(#clippath);
      }

      .cls-4 {
        fill: none;
      }

      .cls-5 {
        fill: url(#_무제_그라디언트_3);
      }
    </style>
    <clipPath id="clippath">
      <rect class="cls-4" width="155.91" height="45.5"/>
    </clipPath>
    <linearGradient id="_무제_그라디언트_3" data-name="무제 그라디언트 3" x1="159.74" y1="-231.33" x2="200.75" y2="-231.33" gradientTransform="translate(-156 -197.73) scale(1 -1)" gradientUnits="userSpaceOnUse">
      <stop offset="0" stop-color="#f3a158"/>
      <stop offset="1" stop-color="#fccf2f"/>
    </linearGradient>
    <linearGradient id="_무제_그라디언트_2" data-name="무제 그라디언트 2" x1="156" y1="-218.26" x2="200.74" y2="-218.26" gradientTransform="translate(-156 -197.73) scale(1 -1)" gradientUnits="userSpaceOnUse">
      <stop offset="0" stop-color="#5e3891"/>
      <stop offset="1" stop-color="#96589f"/>
    </linearGradient>
  </defs>
  <g id="_레이어_1-2" data-name="레이어 1">
    <g class="cls-3">
      <g>
        <path class="cls-1" d="m57.19,6.65h-6.68V1.77h19.48v4.88h-6.65v16.87h-6.15V6.65Z"/>
        <path class="cls-1" d="m89.76,18.77v4.75h-17.47V1.77h17.06v4.75h-10.97v3.67h9.66v4.6h-9.66v3.98h11.38Z"/>
        <path class="cls-1" d="m95.69,23.31c-1.66-.43-3-1.01-4.04-1.74l2.02-4.54c.97.64,2.1,1.16,3.39,1.55,1.28.39,2.55.59,3.79.59,2.36,0,3.54-.59,3.54-1.77,0-.62-.34-1.08-1.01-1.38-.67-.3-1.76-.62-3.25-.95-1.64-.35-3-.73-4.1-1.13-1.1-.4-2.04-1.05-2.83-1.94s-1.18-2.09-1.18-3.6c0-1.33.36-2.52,1.09-3.59.73-1.07,1.81-1.91,3.25-2.53,1.44-.62,3.21-.93,5.3-.93,1.43,0,2.84.16,4.23.48s2.61.79,3.67,1.41l-1.9,4.57c-2.07-1.12-4.08-1.68-6.03-1.68-1.22,0-2.11.18-2.67.54-.56.36-.84.83-.84,1.41s.33,1.02,1,1.31c.66.29,1.73.59,3.2.9,1.66.35,3.03.73,4.12,1.13,1.09.4,2.03,1.05,2.83,1.93.8.88,1.2,2.08,1.2,3.59,0,1.31-.36,2.49-1.09,3.54-.73,1.06-1.81,1.9-3.26,2.53-1.45.63-3.21.95-5.28.95-1.78,0-3.49-.22-5.15-.65Z"/>
        <path class="cls-1" d="m118.05,22.5c-1.83-.97-3.27-2.32-4.32-4.04-1.05-1.72-1.57-3.66-1.57-5.81s.52-4.09,1.57-5.81c1.05-1.72,2.49-3.07,4.32-4.04,1.83-.97,3.9-1.46,6.2-1.46s4.37.49,6.2,1.46c1.83.97,3.27,2.32,4.32,4.04s1.57,3.66,1.57,5.81-.52,4.09-1.57,5.81c-1.05,1.72-2.49,3.07-4.32,4.04s-3.9,1.46-6.2,1.46-4.37-.49-6.2-1.46Zm9.18-4.41c.89-.52,1.6-1.25,2.11-2.19.52-.94.78-2.03.78-3.25s-.26-2.3-.78-3.25c-.52-.95-1.22-1.67-2.11-2.19-.89-.52-1.89-.78-2.98-.78s-2.09.26-2.98.78c-.89.52-1.6,1.25-2.11,2.19-.52.94-.78,2.03-.78,3.25s.26,2.31.78,3.25c.52.94,1.22,1.67,2.11,2.19.89.52,1.89.78,2.98.78,1.1-.01,2.09-.27,2.98-.78Z"/>
        <path class="cls-1" d="m139.57,1.77h6.15v16.87h10.18v4.88h-16.34V1.77h.01Z"/>
        <path class="cls-1" d="m49.99,38.09c0-1.53.38-3.89,1.14-5.18.76-1.28,1.8-2.3,3.13-3.04,1.32-.74,2.78-1.11,4.36-1.11,1.13,0,2.22.22,3.28.65,1.06.44,1.99,1.04,2.8,1.81l-1.15,1.45c-.65-.66-1.4-1.17-2.26-1.53-.86-.37-1.74-.55-2.65-.55-1.24,0-2.37.29-3.4.87-1.03.58-1.85,1.37-2.45,2.37-.6,1-.9,2.1-.9,3.3s.3,2.28.9,3.29c.6,1,1.42,1.8,2.46,2.38,1.04.58,2.17.87,3.4.87.9,0,1.78-.18,2.63-.53.85-.35,1.61-.84,2.27-1.46l1.17,1.31c-.84.77-1.8,1.38-2.87,1.84-1.07.45-2.17.68-3.3.68s-2.3-.22-3.36-.66c-1.06-.44-1.97-1.03-2.73-1.77-.76-.74-1.36-1.63-1.81-2.67-.44-1.04-.66-1.17-.66-2.32Z"/>
        <path class="cls-1" d="m66.17,37.12c0-1.55.39-2.96,1.16-4.24.77-1.28,1.82-2.29,3.15-3.02,1.33-.73,2.79-1.1,4.39-1.1s3.05.37,4.38,1.11c1.33.74,2.38,1.75,3.15,3.04.77,1.28,1.15,2.69,1.15,4.22s-.38,2.93-1.15,4.22c-.77,1.29-1.82,2.3-3.15,3.05-1.33.74-2.79,1.12-4.38,1.12-1.19,0-2.33-.22-3.4-.66-1.07-.44-2-1.03-2.77-1.78-.77-.75-1.38-1.64-1.84-2.67-.46-1.05-.69-2.14-.69-3.29Zm2.82-3.29c-.61,1.01-.92,2.1-.92,3.29s.31,2.28.92,3.29,1.44,1.8,2.49,2.39c1.04.58,2.17.87,3.38.87.91,0,1.78-.17,2.61-.51.83-.34,1.54-.81,2.14-1.39.6-.59,1.08-1.28,1.44-2.09s.54-1.66.54-2.55-.18-1.75-.53-2.55c-.36-.81-.84-1.5-1.44-2.08-.61-.58-1.32-1.04-2.15-1.38-.83-.34-1.7-.51-2.61-.51-1.21,0-2.34.29-3.38.87-1.04.55-1.87,1.34-2.49,2.35Z"/>
        <path class="cls-1" d="m87.02,45.41v-16.6h1.9v14.77h7.28v1.83h-9.18Z"/>
        <path class="cls-1" d="m99.26,45.41v-16.6h1.9v14.77h7.28v1.83h-9.18Z"/>
        <path class="cls-1" d="m126.54,41.33c-.77-1.29-1.15-2.7-1.15-4.21s.39-2.92,1.16-4.21c.77-1.29,1.83-2.3,3.17-3.04,1.34-.74,2.81-1.11,4.41-1.11,1.14,0,2.24.21,3.31.62,1.07.41,2.01.98,2.81,1.7l-1.09,1.42c-.68-.61-1.46-1.08-2.34-1.41-.88-.33-1.77-.5-2.69-.5-1.24,0-2.39.29-3.44.87-1.05.58-1.88,1.37-2.49,2.37s-.91,2.1-.91,3.29.31,2.3.92,3.3c.61,1,1.44,1.8,2.5,2.38,1.05.58,2.2.87,3.45.87,1.55,0,3-.46,4.37-1.39v-4.97h1.68v5.98c-.83.67-1.8,1.21-2.89,1.61-1.09.4-2.19.6-3.29.6-1.58,0-3.03-.37-4.35-1.12-1.33-.74-2.38-1.76-3.14-3.05Z"/>
        <path class="cls-1" d="m144.8,45.41v-16.6h11.1v1.83h-9.2v5.45h9.2v1.83h-9.2v5.66h9.2v1.83h-11.1Z"/>
        <path class="cls-1" d="m111.39,45.41v-16.6h11.1v1.83h-9.2v5.45h9.2v1.83h-9.2v5.66h9.2v1.83h-11.1Z"/>
        <path class="cls-5" d="m22.37,22.4L3.74,41.06c2.31,2.31,5.5,3.74,9.03,3.74h31.98l-22.38-22.4Z"/>
        <path class="cls-2" d="m12.76,0c-3.52,0-6.71,1.43-9.02,3.74C1.43,6.05,0,9.23,0,12.75v19.28c0,3.52,1.43,6.71,3.74,9.02l18.63-18.65L44.74,0H12.76Z"/>
      </g>
    </g>
  </g>
</svg>